<svg width="21" height="21" viewBox="0 0 21 21" fill="none" xmlns="http://www.w3.org/2000/svg">
<path d="M13.2734 10.4999L20.6954 3.07793C21.0844 2.68893 21.0844 2.05293 20.6954 1.66393L19.3364 0.304934C18.9474 -0.0840664 18.3114 -0.0840664 17.9224 0.304934L10.5004 7.72693L3.07842 0.304934C2.68942 -0.0840664 2.05342 -0.0840664 1.66442 0.304934L0.305422 1.66393C-0.0835781 2.05293 -0.0835781 2.68893 0.305422 3.07793L7.72742 10.4999L0.306422 17.9219C-0.0825781 18.3109 -0.0825781 18.9469 0.306422 19.3359L1.66542 20.6949C2.05442 21.0839 2.69042 21.0839 3.07942 20.6949L10.5014 13.2729L17.9234 20.6949C18.3124 21.0839 18.9484 21.0839 19.3374 20.6949L20.6964 19.3359C21.0854 18.9469 21.0854 18.3109 20.6964 17.9219L13.2734 10.4999Z" fill="#EE3643"/>
</svg>
