<svg width="14" height="12" viewBox="0 0 14 12" fill="none" xmlns="http://www.w3.org/2000/svg">
<path d="M2 8V12H6V8H8V12H12V8L7 3.516L2 8Z" fill="#C1C6CE"/>
<path d="M13.8316 6.365L12.0006 4.751V0H10.0006V2.987L7.33259 0.635C7.31259 0.618 7.28959 0.612 7.26859 0.598C7.24355 0.579705 7.21675 0.56396 7.18859 0.551C7.15769 0.540195 7.1259 0.532163 7.09359 0.527C7.06259 0.521 7.03259 0.515 7.00059 0.515C6.96959 0.515 6.93959 0.521 6.90859 0.527C6.87612 0.531919 6.84427 0.5403 6.81359 0.552C6.78559 0.563 6.76059 0.581 6.73359 0.598C6.71259 0.612 6.68859 0.618 6.66959 0.635L0.171586 6.365C0.0168504 6.50291 -0.0369849 6.72187 0.0361578 6.9158C0.1093 7.10974 0.294317 7.23862 0.501586 7.24C0.623517 7.24035 0.741322 7.19586 0.832586 7.115L7.00059 1.677L13.1696 7.115C13.3784 7.27913 13.679 7.25178 13.8548 7.05265C14.0306 6.85352 14.0204 6.55183 13.8316 6.365Z" fill="#C1C6CE"/>
</svg>
