<svg width="108" height="18" viewBox="0 0 108 18" fill="none" xmlns="http://www.w3.org/2000/svg">
<path fill-rule="evenodd" clip-rule="evenodd" d="M103.848 2.65853V17.4498H101.735V2.65853H97.9785V1.01506H107.605V2.65853H103.848ZM95.7129 11.3572C95.345 11.819 94.8833 12.1477 94.3277 12.3433C93.772 12.539 93.1107 12.6368 92.3437 12.6368C91.9837 12.6368 91.5768 12.6133 91.1229 12.5664C90.669 12.5194 90.2933 12.4646 89.9959 12.402V17.4498H87.8829V1.24984C88.4776 1.07766 89.0763 0.95636 89.679 0.885926C90.2816 0.815491 90.935 0.780273 91.6394 0.780273C92.5785 0.780273 93.3768 0.8781 94.0342 1.07375C94.6916 1.2694 95.2237 1.59419 95.6307 2.0481C96.0377 2.50201 96.335 3.10462 96.5229 3.85593C96.7107 4.60723 96.8046 5.53853 96.8046 6.64984C96.8046 7.79245 96.7146 8.74723 96.5346 9.51419C96.3546 10.2811 96.0807 10.8955 95.7129 11.3572ZM94.5155 4.5368C94.3981 3.97332 94.2142 3.52723 93.9637 3.19853C93.7133 2.86984 93.3963 2.63897 93.0129 2.50593C92.6294 2.37288 92.1716 2.30636 91.6394 2.30636H89.9959V10.9933H91.6394C92.1716 10.9933 92.6294 10.9268 93.0129 10.7938C93.3963 10.6607 93.7133 10.4298 93.9637 10.1011C94.2142 9.77245 94.3981 9.32636 94.5155 8.76288C94.6329 8.1994 94.6916 7.49506 94.6916 6.64984C94.6916 5.80462 94.6329 5.10027 94.5155 4.5368ZM82.6003 13.2238H77.9046L76.8481 17.4498H74.735L78.7263 1.01506H81.7785L85.7698 17.4498H83.6568L82.6003 13.2238ZM80.2994 3.36288H80.2055L78.2568 11.5803H82.2481L80.2994 3.36288ZM70.1568 5.24114H70.0394L66.635 15.3368H64.522L61.1176 5.24114H61.0003L60.2959 17.4498H58.1829L59.122 1.01506H61.7046L65.5316 12.2846H65.6255L69.4524 1.01506H72.035L72.9742 17.4498H70.8611L70.1568 5.24114ZM54.3794 15.9238C53.9411 16.5655 53.4129 17.0194 52.7946 17.2855C52.1763 17.5516 51.4681 17.6846 50.6698 17.6846C49.8716 17.6846 49.1633 17.5516 48.545 17.2855C47.9268 17.0194 47.3985 16.5655 46.9603 15.9238C46.522 15.282 46.1894 14.4172 45.9624 13.3294C45.7355 12.2416 45.622 10.8759 45.622 9.23245C45.622 7.58897 45.7355 6.22332 45.9624 5.13549C46.1894 4.04766 46.522 3.18288 46.9603 2.54114C47.3985 1.8994 47.9268 1.44549 48.545 1.1794C49.1633 0.913317 49.8716 0.780273 50.6698 0.780273C51.4681 0.780273 52.1763 0.913317 52.7946 1.1794C53.4129 1.44549 53.9411 1.8994 54.3794 2.54114C54.8176 3.18288 55.1503 4.04766 55.3772 5.13549C55.6042 6.22332 55.7176 7.58897 55.7176 9.23245C55.7176 10.8759 55.6042 12.2416 55.3772 13.3294C55.1503 14.4172 54.8176 15.282 54.3794 15.9238ZM53.3581 5.75766C53.1937 4.84984 52.9785 4.12984 52.7124 3.59766C52.4463 3.06549 52.1333 2.69766 51.7733 2.49419C51.4133 2.29071 51.0455 2.18897 50.6698 2.18897C50.2942 2.18897 49.9263 2.29071 49.5663 2.49419C49.2063 2.69766 48.8933 3.06549 48.6272 3.59766C48.3611 4.12984 48.1459 4.84984 47.9816 5.75766C47.8172 6.66549 47.735 7.82375 47.735 9.23245C47.735 10.6411 47.8172 11.7994 47.9816 12.7072C48.1459 13.6151 48.3611 14.3351 48.6272 14.8672C48.8933 15.3994 49.2063 15.7672 49.5663 15.9707C49.9263 16.1742 50.2942 16.2759 50.6698 16.2759C51.0455 16.2759 51.4133 16.1742 51.7733 15.9707C52.1333 15.7672 52.4463 15.3994 52.7124 14.8672C52.9785 14.3351 53.1937 13.6151 53.3581 12.7072C53.5224 11.7994 53.6046 10.6411 53.6046 9.23245C53.6046 7.82375 53.5224 6.66549 53.3581 5.75766ZM40.6916 9.9368H35.7611V17.4498H33.6481V1.01506H35.7611V8.29332H40.6916V1.01506H42.8046V17.4498H40.6916V9.9368ZM29.5402 17.4498L26.6054 10.4064L23.6706 17.4498H21.5576L25.0793 8.99766L21.9097 1.01506H24.0228L26.6054 7.58897L29.188 1.01506H31.301L28.1315 8.99766L31.6532 17.4498H29.5402ZM12.2836 1.01506H20.2663V2.65853H14.3967V8.05853H19.5619V9.70201H14.3967V15.8064H20.2663V17.4498H12.2836V1.01506ZM6.64886 17.4498H4.53582V2.65853H0.779297V1.01506H10.4054V2.65853H6.64886V17.4498Z" fill="white"/>
</svg>
